<svg xmlns="http://www.w3.org/2000/svg" viewBox="0 0 594.7 64.04"><defs><style>.cls-1{font-size:56.53px;font-family:AppleSDGothicNeo-Thin-KSCpc-EUC-H, Apple SD Gothic Neo;}.cls-1,.cls-5,.cls-6{fill:#fff;}.cls-2{letter-spacing:0em;}.cls-3{letter-spacing:0em;}.cls-4{letter-spacing:-0.03em;}.cls-5{fill-rule:evenodd;}</style></defs><title>자산 1</title><g id="레이어_2" data-name="레이어 2"><g id="레이어_1-2" data-name="레이어 1"><text class="cls-1" transform="translate(0 52.28)"><tspan xml:space="preserve">민재       B</tspan><tspan class="cls-2" x="233.87" y="0">e</tspan><tspan class="cls-3" x="261.45" y="0">t</tspan><tspan class="cls-4" x="279.77" y="0">A</tspan><tspan x="311.2" y="0">-underAlpha</tspan></text><path class="cls-5" d="M160.11,0a31.61,31.61,0,0,0-10,61.6c1.58.29,2.16-.69,2.16-1.52s0-3.24,0-5.88c-8.79,1.91-10.65-3.73-10.65-3.73-1.44-3.65-3.51-4.62-3.51-4.62-2.87-2,.22-1.92.22-1.92,3.17.22,4.85,3.26,4.85,3.26,2.82,4.83,7.39,3.43,9.2,2.63a6.74,6.74,0,0,1,2-4.23c-7-.8-14.4-3.51-14.4-15.62a12.23,12.23,0,0,1,3.26-8.48,11.36,11.36,0,0,1,.31-8.36s2.65-.85,8.69,3.24a30,30,0,0,1,15.83,0c6-4.09,8.68-3.24,8.68-3.24a11.35,11.35,0,0,1,.31,8.36A12.21,12.21,0,0,1,180.27,30c0,12.14-7.39,14.81-14.43,15.59,1.13,1,2.14,2.9,2.14,5.85,0,4.23,0,7.63,0,8.67,0,.84.57,1.83,2.17,1.52A31.61,31.61,0,0,0,160.11,0"/><path class="cls-6" d="M140.47,45.38c-.07.16-.32.2-.54.1s-.36-.32-.28-.47.32-.21.54-.1.36.32.28.48"/><path class="cls-6" d="M141.75,46.81c-.15.14-.45.07-.65-.15A.48.48,0,0,1,141,46c.16-.14.44-.07.65.15s.25.52.09.66"/><path class="cls-6" d="M143,48.63c-.19.14-.51,0-.71-.27s-.19-.62,0-.75.51,0,.71.27.19.62,0,.76"/><path class="cls-6" d="M144.7,50.39c-.17.19-.54.14-.81-.12a.61.61,0,0,1-.18-.81c.18-.19.55-.14.82.12s.36.62.17.81"/><path class="cls-6" d="M147.06,51.41c-.08.25-.43.36-.79.25s-.59-.4-.52-.65.43-.37.79-.25.59.4.52.65"/><path class="cls-6" d="M149.65,51.6c0,.26-.29.48-.67.48s-.68-.2-.69-.46.3-.48.67-.48.68.2.68.46"/><path class="cls-6" d="M152.05,51.19c0,.25-.22.52-.59.58s-.71-.09-.75-.34.22-.52.59-.59.71.09.76.35"/></g></g></svg>